SplineFontDB: 3.0
FontName: zbalermorna-manri
FullName: Zbalermorna zei Manri
FamilyName: zbalermorna
Weight: Regular
Copyright: Copyright (c) 2016, la kmir
UComments: "2016-12-9: Created with FontForge (http://fontforge.org)"
Version: 001.000
ItalicAngle: 0
UnderlinePosition: -90
UnderlineWidth: 464
Ascent: 800
Descent: 200
InvalidEm: 0
LayerCount: 2
Layer: 0 0 "Back" 1
Layer: 1 0 "Fore" 0
XUID: [1021 15 -1537435809 229010]
FSType: 0
OS2Version: 0
OS2_WeightWidthSlopeOnly: 0
OS2_UseTypoMetrics: 1
CreationTime: 1481267425
ModificationTime: 1564202819
PfmFamily: 17
TTFWeight: 400
TTFWidth: 5
LineGap: 82
VLineGap: 0
OS2TypoAscent: 0
OS2TypoAOffset: 1
OS2TypoDescent: 0
OS2TypoDOffset: 1
OS2TypoLinegap: 82
OS2WinAscent: 0
OS2WinAOffset: 1
OS2WinDescent: 0
OS2WinDOffset: 1
HheadAscent: 0
HheadAOffset: 1
HheadDescent: 0
HheadDOffset: 1
OS2Vendor: 'PfEd'
MarkAttachClasses: 2
"vowel" 0 
DEI: 91125
LangName: 1033
Encoding: Custom
UnicodeInterp: none
NameList: AGL For New Fonts
DisplaySize: -48
AntiAlias: 1
FitToEm: 0
WinInfo: 196 28 12
BeginPrivate: 0
EndPrivate
Grid
-1000 680 m 0
 2000 680 l 1024
  Named: "vowel"
-1000 -255 m 0
 2000 -255 l 1024
  Named: "descender"
0 725 m 4
 800 725 l 1024
  Named: "ascender"
270 1200 m 0
 270 0 l 1024
  Named: "narrow"
50 1000 m 0
 50 -300 l 1024
  Named: "left"
150 1300 m 0
 150 -300 l 1024
  Named: "instem"
550 1000 m 0
 550 -300 l 1024
  Named: "right"
450 1300 m 0
 450 -300 l 1024
  Named: "instem"
0 470 m 0
 1000 470 l 1024
  Named: "x-height"
300 1000 m 0
 300 -200 l 1024
  Named: "center"
-1000 235 m 0
 1000 235 l 1024
  Named: "midpoint"
-1000 0 m 0
 1000 0 l 1024
  Named: "baseline"
EndSplineSet
BeginChars: 507 364

StartChar: ZLM_NULL
Encoding: 0 926464 0
Width: 300
VWidth: 0
GlyphClass: 2
Flags: HW
HStem: 157 156<96.2149 203.785>
VStem: 72 156<181.215 288.785>
LayerCount: 2
Fore
SplineSet
-130 166 m 5
 450 166 l 5
 450 106 l 5
 -130 106 l 5
 -130 166 l 5
54 -34 m 4
 54 -87 97 -130 150 -130 c 4
 203 -130 246 -87 246 -34 c 4
 246 19 203 62 150 62 c 4
 97 62 54 19 54 -34 c 4
54 302 m 4
 54 249 97 206 150 206 c 4
 203 206 246 249 246 302 c 4
 246 355 203 398 150 398 c 4
 97 398 54 355 54 302 c 4
-17 -34 m 4
 -17 58 58 133 150 133 c 4
 242 133 317 58 317 -34 c 4
 317 -126 242 -201 150 -201 c 4
 58 -201 -17 -126 -17 -34 c 4
-17 301 m 4
 -17 393 58 468 150 468 c 4
 242 468 317 393 317 301 c 4
 317 209 242 134 150 134 c 4
 58 134 -17 209 -17 301 c 4
EndSplineSet
EndChar

StartChar: ZLM_H
Encoding: 16 926480 11
Width: 300
VWidth: 0
GlyphClass: 2
Flags: HW
HStem: 0 21G<80 180>
VStem: 80 100<0 470>
LayerCount: 2
Fore
SplineSet
132.549804688 136.674804688 m 5
 99.39453125 -81.767578125 l 5
 99.39453125 -81.767578125 106.375 -307.676757812 132.549804688 -252.600585938 c 4
 158.724609375 -197.5234375 171.338867188 -167.173828125 167.450195312 31.1875 c 4
 164.091796875 202.4453125 373.360351562 192.684570312 321.009765625 342.046875 c 4
 249.3046875 546.631835938 17.5634765625 495.036132812 -61.14453125 334.579101562 c 4
 -83.71484375 288.567382812 27.849609375 204.821289062 27.849609375 204.821289062 c 5
 27.849609375 204.821289062 -0.0703125 321.509765625 62.75 377.520507812 c 5
 195.509765625 473.553710938 258.190429688 379.387695312 266.915039062 323.376953125 c 5
 132.549804688 136.674804688 l 5
EndSplineSet
EndChar

StartChar: ZLM_P
Encoding: 32 926496 23
Width: 600
VWidth: 0
Flags: HW
HStem: 0 21G<50.9724 167.021>
VStem: 51 99<119 725>
LayerCount: 2
Fore
SplineSet
446.32421875 81.23046875 m 6
 447.93359375 81.23046875 446.32421875 81.23046875 446.32421875 81.23046875 c 6
 447.129882812 -208.01953125 l 6
 447.182617188 -227.336914062 465.282226562 -243.549804688 487.194335938 -243.62890625 c 4
 509.108398438 -243.70703125 527.499023438 -227.625976562 527.586914062 -208.307617188 c 6
 530 315 l 5
 532.412109375 480.821289062 l 6
 532.692382812 500.137695312 514.61328125 516.490234375 492.702148438 516.737304688 c 4
 470.790039062 516.986328125 452.240234375 501.046875 451.958984375 481.73046875 c 6
 449.543945312 315.598632812 l 5
 448.674804688 127.197265625 l 5
 443.3984375 126.948242188 438.120117188 125.77734375 433.161132812 123.590820312 c 4
 432.440429688 123.274414062 432.159179688 122.510742188 431.443359375 122.833984375 c 4
 411.939453125 131.651367188 367.729492188 90.4072265625 306.325195312 139.393554688 c 5
 281.834960938 203.375 295.568359375 332.236328125 301.6875 436.59765625 c 4
 302.819335938 455.890625 292.033203125 486.950195312 270.119140625 486.950195312 c 4
 248.206054688 486.950195312 229.890625 470.765625 229.890625 451.485351562 c 6
 229.890625 138.68359375 l 6
 229.890625 130.4453125 233.594726562 121.994140625 239.065429688 116.138671875 c 6
 248.758789062 92.3193359375 272.857421875 79.9638671875 272.857421875 79.9638671875 c 6
 277.553710938 74.9384765625 285.431640625 68.6005859375 290.696289062 69.013671875 c 6
 333.696289062 42.6142578125 422.706054688 84.75390625 446.32421875 81.23046875 c 6
EndSplineSet
EndChar

StartChar: ZLM_T
Encoding: 48 926512 35
Width: 600
VWidth: 0
GlyphClass: 2
Flags: HW
HStem: 0 21G<50 150 450 550> 400 80<228.671 371.847>
VStem: 50 100<0 313.49 434 725> 450 100<0 311.21>
LayerCount: 2
Fore
SplineSet
222.927734375 462.525390625 m 4
 242.227539062 462.525390625 258.359375 444.946289062 258.359375 423.9140625 c 6
 258.359375 419.280273438 l 6
 258.359375 367.3828125 279.6953125 456.348632812 336.307617188 456.348632812 c 4
 340.079101562 456.348632812 344.604492188 455.431640625 347.595703125 454.3359375 c 4
 387.98046875 439.54296875 397.973632812 434.046875 397.973632812 434.046875 c 5
 429.685546875 469.467773438 462.833007812 472.63671875 490.865234375 470.119140625 c 4
 572.879882812 462.743164062 591.412109375 383.231445312 591.412109375 321.98046875 c 4
 591.412109375 291.361328125 587.364257812 265.056640625 585.641601562 241.84765625 c 6
 578.568359375 132.389648438 l 6
 578.524414062 131.727539062 578.4375 130.80078125 578.381835938 130.311523438 c 6
 576.965820312 117.958007812 l 6
 574.571289062 97.0888671875 556.563476562 81.8232421875 537.4140625 84.4326171875 c 4
 518.26171875 87.0419921875 504.256835938 106.665039062 506.650390625 127.53515625 c 6
 507.94921875 138.85546875 l 5
 514.982421875 247.669921875 l 6
 517.088867188 276.111328125 520.547851562 299.109375 520.547851562 321.98046875 c 4
 520.547851562 376.780273438 511.61328125 390.766601562 485.038085938 393.15625 c 4
 457.615234375 395.622070312 435.967773438 354.8984375 429.666992188 271.063476562 c 4
 428.033203125 249.328125 420.041992188 72.16796875 415.672851562 111.162109375 c 4
 415.586914062 111.9296875 364.732421875 121.978515625 364.653320312 122.745117188 c 4
 355.373046875 212.68359375 372.833007812 340.181640625 333.338867188 378.15625 c 5
 333.338867188 378.15625 310.302734375 338.256835938 291.1484375 287.272460938 c 4
 283.142578125 265.958984375 281.7578125 204.834960938 272.50390625 172.168945312 c 5
 271.0859375 133.55859375 l 6
 270.431640625 115.725585938 257.489257812 99.2724609375 240.283203125 96.8173828125 c 4
 220.090820312 93.9365234375 201.3515625 110.942382812 200.299804688 133.108398438 c 6
 196.0390625 222.868164062 l 5
 191.791015625 332.469726562 l 5
 187.548828125 417.177734375 l 6
 187.524414062 417.672851562 187.497070312 418.614257812 187.497070312 419.280273438 c 6
 187.497070312 423.9140625 l 6
 187.497070312 444.946289062 203.627929688 462.525390625 222.927734375 462.525390625 c 4
EndSplineSet
EndChar

StartChar: ZLM_K
Encoding: 64 926528 47
Width: 734
VWidth: 0
GlyphClass: 2
Flags: HW
HStem: 0 21G<184.972 301.021>
VStem: 185 99<119 725>
LayerCount: 2
Fore
SplineSet
171.259765625 520 m 5
 173.114257812 38.0537109375 l 6
 173.21875 11.001953125 195.5859375 -11.0224609375 220.3515625 -9.9619140625 c 4
 245.116210938 -8.9013671875 251.974609375 11.1689453125 251.33984375 38 c 6
 247.700195312 192 l 4
 240.586914062 419.79296875 302.53515625 502.997070312 489.813476562 350.983398438 c 5
 489.344726562 315.598632812 l 5
 487.1484375 -208.01953125 l 6
 487.068359375 -227 503.666992188 -243.549804688 523.606445312 -243.62890625 c 4
 543.548828125 -243.70703125 560.284179688 -227.625976562 560.364257812 -208.307617188 c 6
 562.559570312 315 l 5
 564.754882812 480.821289062 l 6
 565.009765625 500.137695312 548.557617188 516.490234375 528.619140625 516.737304688 c 4
 508.678710938 516.986328125 492.364257812 500.946289062 491.54296875 481.73046875 c 6
 489.759765625 440 l 5
 450.756835938 461.475585938 442.767578125 504.44140625 311.400390625 492 c 4
 281.91015625 489.20703125 227.6796875 430 227.6796875 430 c 5
 225.860351562 518 l 5
 171.259765625 520 l 5
489.81640625 351.200195312 m 5
 489.935546875 360.190429688 l 5
 481.737304688 360.45703125 473.543945312 363.120117188 466.340820312 368.397460938 c 6
 489.81640625 351.200195312 l 5
EndSplineSet
EndChar

StartChar: ZLM_F
Encoding: 80 926544 59
Width: 600
VWidth: 0
GlyphClass: 2
Flags: HW
HStem: -15943.5 573.498G<5.43959e+15 7.27729e+15> -5292.83 2184.75<2.13173e+15 7.61888e+15 9.30367e+15 1.13202e+16>
VStem: 5.43959e+15 1.8377e+15<-15943.5 -7849.13>
LayerCount: 2
Fore
SplineSet
270 210 m 1
 270 340 l 29
 340 348 l 5
 340 203 l 17
 344 144 321.328125 77.1376953125 400.505859375 72.8779296875 c 1
 400.505859375 72.8779296875 410.602313921 74.0129315148 411.888291656 73.9643308233 c 0
 412.887578273 73.9265649902 436.161339925 76.2606382832 437.13471743 76.4898461206 c 0
 499.566511032 91.191086205 550.343634613 166.571437285 535.405877072 228.226673503 c 0
 534.499116269 231.969306982 534 236.948007174 534 240 c 2
 534 292.370879822 l 2
 533.628609324 293.299356513 525.947556132 312.501989491 525.576165456 313.430466182 c 0
 515.461102664 338.718123162 528.142809203 368.308771752 553.430466182 378.423834544 c 0
 578.718123162 388.538897336 608.308771752 375.857190797 618.423834544 350.569533818 c 2
 630.423834544 320.569533818 l 2
 632.462382291 315.473164451 634 308.290025941 634 302 c 2
 634 245.554539601 l 1
 659.34800623 124.81914844 571.633127537 5.42604000869 460.055501166 -20.8479043821 c 0
 459.082123661 -21.0771122195 245.389105475 -19.8145890336 240.968497342 -19.6475219016 c 0
 213.061594098 -36.7620233064 216.011920239 -23.6968788361 181.380814757 -19.9858954809 c 0
 6.61480855398 -18.0978928094 -6.82098544774 172.747075423 -29.7906216049 199.26059074 c 0
 -37.2815870967 207.907302722 -42 219.986929201 -42 232 c 2
 -42 340 l 2
 -42 367.235640084 -19.2356400842 390 8 390 c 0
 35.2356400842 390 58 367.235640084 58 340 c 0
 58 311.9255048 85.5212372619 152.288428176 89 146 c 0
 161.582344658 14.7956334974 190.454248927 79.382823809 171 61 c 1
 293.745117188 76.4345703125 275.783005856 145.540062086 270 210 c 1
EndSplineSet
EndChar

StartChar: ZLM_BAHEBU_1
Encoding: 95 926559 70
Width: 227
VWidth: 0
GlyphClass: 2
Flags: HW
HStem: -241 120<71.7454 164.255>
VStem: 58 120<-227.255 -134.745>
LayerCount: 2
Fore
SplineSet
58 -191 m 4
 58 -158 85 -131 118 -131 c 4
 151 -131 178 -158 178 -191 c 4
 178 -224 151 -251 118 -251 c 4
 85 -251 58 -224 58 -191 c 4
EndSplineSet
EndChar

StartChar: ZLM_L
Encoding: 96 926560 71
Width: 471
VWidth: 0
GlyphClass: 2
Flags: HW
HStem: 70 2.89708e-06<471 471> 70 2.89708e-06<471 471>
VStem: 471 2.09369e-08<70 70>
LayerCount: 2
Fore
SplineSet
37.970703125 787.3359375 m 0
 60.8427734375 787.6796875 80.17578125 762.54296875 80.4345703125 732.125976562 c 2
 83.791015625 337.236328125 l 1
 87.1396484375 183.598632812 l 2
 87.2158203125 180.083984375 86.916015625 175.413085938 86.576171875 172.725585938 c 0
 80.66796875 125.96875 108.055664062 105.98828125 171.225585938 112.5625 c 0
 174.458007812 112.8984375 178.659179688 112.5625 181.196289062 112.018554688 c 0
 230.950195312 101.333984375 315.49609375 171.755859375 391.247070312 237.650390625 c 4
 391.249023438 237.651367188 391.229492188 237.673828125 417.094726562 269.228515625 c 6
 424.852539062 279.547851562 l 6
 441.028320312 301.056640625 468.06640625 301.056640625 484.240234375 279.547851562 c 4
 500.415039062 258.036132812 500.415039062 222.080078125 484.240234375 200.5703125 c 6
 475.202148438 188.551757812 l 6
 473.12109375 186.01171875 452.575195312 157.536132812 437.220703125 144.1796875 c 4
 400.502929688 112.239257812 277.9453125 -17.328125 172.845703125 0.78125 c 1
 111.651367188 -3.5888671875 -14.54296875 22.501953125 3.0771484375 185.482421875 c 1
 -0.1826171875 334.987304688 l 1
 -3.546875 730.86328125 l 2
 -3.8037109375 761.28125 15.09765625 786.9921875 37.970703125 787.3359375 c 0
EndSplineSet
EndChar

StartChar: ZLM_BAHEBU_2
Encoding: 111 926575 82
Width: 227
VWidth: 0
GlyphClass: 2
Flags: HW
HStem: -241 120<71.7454 164.255>
VStem: 58 120<-227.255 -134.745>
LayerCount: 2
Fore
SplineSet
138 -191 m 0
 138 -158 165 -131 198 -131 c 0
 231 -131 258 -158 258 -191 c 0
 258 -224 231 -251 198 -251 c 0
 165 -251 138 -224 138 -191 c 0
-32 -191 m 0
 -32 -158 -5 -131 28 -131 c 0
 61 -131 88 -158 88 -191 c 0
 88 -224 61 -251 28 -251 c 0
 -5 -251 -32 -224 -32 -191 c 0
EndSplineSet
EndChar

StartChar: ZLM_S
Encoding: 112 926576 83
Width: 600
VWidth: 0
GlyphClass: 2
Flags: W
HStem: -10 80<223.725 381.759> 390 80<49 177.588 308.719 549>
VStem: 49.001 110.002<131.894 279.803>
LayerCount: 2
Fore
SplineSet
49.0009765625 214.4609375 m 0
 49.0009765625 292.547851562 128 381 177.587890625 390 c 1
 49 390 l 1
 49 470 l 1
 549 470 l 1
 549 390 l 1
 409 390 l 2
 360.3515625 390 159.755859375 344.868164062 159.002929688 213.92578125 c 0
 159.516601562 110.442382812 234.248046875 70 306 70 c 4
 362 70 420 100 443 171 c 1
 550 158 l 1
 515 60 417 -10 306 -10 c 0
 168.180664062 -10 49.3125 77.716796875 49.0009765625 214.4609375 c 0
EndSplineSet
EndChar

StartChar: ZLM_BAHEBU_3
Encoding: 127 926591 94
Width: 227
VWidth: 0
GlyphClass: 2
Flags: HW
HStem: -241 120<71.7454 164.255>
VStem: 58 120<-227.255 -134.745>
LayerCount: 2
Fore
SplineSet
148 -241 m 0
 148 -208 175 -181 208 -181 c 0
 241 -181 268 -208 268 -241 c 0
 268 -274 241 -301 208 -301 c 0
 175 -301 148 -274 148 -241 c 0
-32 -241 m 0
 -32 -208 -5 -181 28 -181 c 0
 61 -181 88 -208 88 -241 c 0
 88 -274 61 -301 28 -301 c 0
 -5 -301 -32 -274 -32 -241 c 0
58 -91 m 0
 58 -58 85 -31 118 -31 c 0
 151 -31 178 -58 178 -91 c 0
 178 -124 151 -151 118 -151 c 0
 85 -151 58 -124 58 -91 c 0
EndSplineSet
EndChar

StartChar: ZLM_C
Encoding: 128 926592 95
Width: 600
VWidth: 0
GlyphClass: 2
Flags: HW
HStem: -10 80<229.445 375.827> 400 80<229.445 380.338>
VStem: 43 110<148.617 321.383>
LayerCount: 2
Fore
SplineSet
535.762358337 332.147630281 m 5
 429.86967936 318.517879522 l 4
 403.605130253 379.281996659 351.048828125 400 300 400 c 4
 228 400 153 339 153 235 c 4
 153 131 228 70 300 70 c 4
 356.287109375 70 414.407842121 99.5038587923 437.0948728 170.800139505 c 5
 543.763671875 157.598632812 l 5
 509.099609375 59.443359375 410.658180202 -10 300 -10 c 4
 162 -10 43 98 43 235 c 4
 43 372 162 480 300 480 c 4
 403.080994236 480 502 431 535.762358337 332.147630281 c 5
EndSplineSet
EndChar

StartChar: ZLM_M
Encoding: 144 926608 107
Width: 600
VWidth: 0
GlyphClass: 2
Flags: HW
HStem: 0 80<50 303.953 441.412 550> 400 80<217.241 375.275>
VStem: 439.997 110.002<186.082 338.106>
LayerCount: 2
Fore
SplineSet
197.295898438 210.729492188 m 4
 196.23046875 223.658203125 212.837890625 235.013671875 233.76953125 235.671875 c 6
 347.272460938 239.236328125 l 6
 347.890625 239.254882812 348.766601562 239.266601562 349.225585938 239.266601562 c 6
 353.07421875 239.266601562 l 6
 374.03125 239.266601562 391.548828125 228.446289062 391.548828125 215.500976562 c 4
 391.548828125 202.556640625 374.03125 191.735351562 353.07421875 191.735351562 c 6
 350.204101562 191.735351562 l 5
 237.67578125 188.201171875 l 6
 216.744140625 187.544921875 198.360351562 197.80078125 197.295898438 210.729492188 c 4
EndSplineSet
Refer: 210 926752 N 1 0 0 1 0 0 2
EndChar

StartChar: ZLM_X
Encoding: 160 926624 119
Width: 300
VWidth: 0
GlyphClass: 2
Flags: HW
HStem: -10 80<229.445 370.555> 400 80<229.445 370.555>
VStem: 43 110<148.617 321.383> 447 110<148.617 321.383>
LayerCount: 2
Fore
SplineSet
246 328 m 5
 390 328 l 5
 390 294 l 5
 246 294 l 5
 246 328 l 5
EndSplineSet
Refer: 11 926480 N 1 0 0 1 180 0 2
EndChar

StartChar: ZLM_B
Encoding: 176 926640 131
Width: 600
VWidth: 0
GlyphClass: 2
Flags: HW
HStem: 0 21G<50 167.094>
VStem: 450 100<-255 351>
LayerCount: 2
Fore
SplineSet
72.7431640625 397.599609375 m 4
 72.7431640625 415.90234375 89.6923828125 431.200195312 109.971679688 431.200195312 c 6
 336.321289062 431.200195312 l 6
 337.0234375 431.200195312 338.010742188 431.168945312 338.530273438 431.140625 c 4
 364.55078125 429.74609375 390.899414062 427.16796875 411.569335938 427.16796875 c 4
 426.302734375 427.66796875 439.708984375 427.69921875 445.12109375 428.89453125 c 4
 447.82421875 429.491210938 451.040039062 429.803710938 453.495117188 429.854492188 c 4
 454.213867188 430.030273438 474.584960938 432.53125 475.328125 432.49609375 c 4
 495.578125 431.509765625 511.58984375 415.41015625 510.498046875 397.133789062 c 4
 509.547851562 381.225585938 498.049804688 361.90234375 462.807617188 363.6171875 c 5
 441.932617188 359.010742188 426.092773438 360.413085938 412.967773438 359.967773438 c 4
 383.743164062 359.967773438 358.938476562 362.685546875 335.19921875 364 c 6
 109.971679688 364 l 6
 89.6923828125 364 72.7431640625 379.296875 72.7431640625 397.599609375 c 4
109.971679688 411.040039062 m 4
 130.25 411.040039062 147.200195312 395.743164062 147.200195312 377.440429688 c 6
 147.200195312 366.350585938 l 6
 146.484375 334.172851562 161.736328125 299.850585938 175.202148438 257.403320312 c 5
 207.948242188 175.446289062 227.356445312 96.98046875 294.3359375 74.23046875 c 5
 294.3359375 74.23046875 298.778320312 73.6953125 311.006835938 73.6953125 c 4
 338.970703125 73.6953125 405.459960938 234.140625 427.890625 282.055664062 c 5
 433.329101562 319.919921875 438.345703125 332.302734375 442.360351562 360.255859375 c 4
 442.515625 361.33984375 442.833007812 362.834960938 443.041992188 363.631835938 c 6
 448.998046875 386.479492188 l 6
 453.642578125 404.295898438 474.024414062 415.682617188 493.763671875 411.491210938 c 4
 513.50390625 407.298828125 526.12109375 388.903320312 521.475585938 371.088867188 c 6
 515.955078125 349.913085938 l 5
 505.775390625 279.041015625 l 6
 505.215820312 275.142578125 503.497070312 270.275390625 501.01953125 266.440429688 c 4
 481.465820312 236.162109375 436.068359375 6.49609375 311.006835938 6.49609375 c 4
 301.489257812 6.49609375 286.576171875 5.0654296875 268.111328125 11.3369140625 c 4
 153.239257812 50.353515625 131.513671875 168.869140625 104.74609375 235.641601562 c 4
 104.538085938 236.162109375 104.174804688 237.15625 103.948242188 237.873046875 c 4
 92.392578125 274.514648438 71.63671875 317.336914062 72.7431640625 367.025390625 c 6
 72.7431640625 377.440429688 l 6
 72.7431640625 395.743164062 89.6923828125 411.040039062 109.971679688 411.040039062 c 4
EndSplineSet
EndChar

StartChar: ZLM_D
Encoding: 192 926656 143
Width: 600
VWidth: 0
GlyphClass: 2
Flags: HW
HStem: -10 80<228.153 371.329>
VStem: 50 100<158.79 470> 450 100<-255 36 156.51 470>
LayerCount: 2
Fore
SplineSet
186.004590578 122.605991052 m 0
 186.334681662 144.392002573 204.819979531 162.325500506 226.605991052 161.995409422 c 2
 358.605991052 159.995409422 l 2
 380.392002573 159.665318338 398.325500506 141.180020469 397.995409422 119.394008948 c 0
 397.665318338 97.6079974273 379.180020469 79.6744994942 357.394008948 80.0045905779 c 2
 225.394008948 82.0045905779 l 2
 203.607997427 82.3346816615 185.674499494 100.819979531 186.004590578 122.605991052 c 0
EndSplineSet
Refer: 35 926512 S 1 0 0 1 -100 -30 2
EndChar

StartChar: ZLM_G
Encoding: 208 926672 155
Width: 734
VWidth: 0
GlyphClass: 2
Flags: HW
HStem: 0 21G<50 167.745>
VStem: 50 100<115 470> 449 101<-255 337>
LayerCount: 2
Fore
SplineSet
136.208361186 227.922564472 m 0
 133.987329856 249.597579534 150.24754941 269.570607484 171.922564472 271.791638814 c 0
 192.4337331 273.893411201 209.506532605 272.062504075 222.09926943 272 c 2
 306.264144775 272 l 1
 396.534815345 279.849623528 l 2
 418.241415423 281.737153969 437.962093086 265.171784733 439.849623528 243.465184655 c 0
 441.737153969 221.758584577 425.171784733 202.037906914 403.465184655 200.150376472 c 2
 311.465184655 192.150376472 l 2
 310.645173386 192.079071144 309.104245774 192 308 192 c 2
 221.90073057 192 l 2
 203.826800729 192.089709988 190.232933567 193.248991573 180.077435528 192.208361186 c 0
 158.402420466 189.987329856 138.429392516 206.24754941 136.208361186 227.922564472 c 0
414 0 m 5
 409.813476562 350.983398438 l 1
 222.53515625 502.997070312 160.586914062 419.79296875 167.700195312 192 c 0
 171.33984375 38 l 2
 171.974609375 11.1689453125 165.116210938 -8.9013671875 140.3515625 -9.9619140625 c 0
 115.5859375 -11.0224609375 93.21875 11.001953125 93.1142578125 38.0537109375 c 2
 91.259765625 520 l 1
 145.860351562 518 l 1
 147.6796875 430 l 1
 147.6796875 430 201.91015625 489.20703125 231.400390625 492 c 0
 362.767578125 504.44140625 370.756835938 461.475585938 409.759765625 440 c 1
 411.54296875 481.73046875 l 2
 412.364257812 500.946289062 428.678710938 516.986328125 448.619140625 516.737304688 c 0
 468.557617188 516.490234375 484.46386729 500.134497567 484.754882812 480.821289062 c 2
 492 0 l 1
 414 0 l 5
409.81640625 351.200195312 m 1
 409.935546875 360.190429688 l 1
 401.737304688 360.45703125 393.543945312 363.120117188 386.340820312 368.397460938 c 2
 409.81640625 351.200195312 l 1
EndSplineSet
EndChar

StartChar: ZLM_V
Encoding: 224 926688 166
Width: 600
VWidth: 0
GlyphClass: 2
Flags: HW
HStem: 0 80<52 161.733 253.412 552>
VStem: 272 100<173.605 470>
LayerCount: 2
Fore
SplineSet
160.000499459 345.199891144 m 0
 160.109382724 366.98813115 178.411651138 385.108383806 200.199891144 384.999500541 c 0
 223.517855641 384.882972721 252.282397691 392.128112764 289.241189696 390.980738464 c 0
 290.267481576 390.948877549 291.700080855 390.835833243 292.459650884 390.750616523 c 0
 314.288015938 388.301676205 360.107568691 402.470355922 405.16082902 386.77290801 c 0
 425.73621557 379.604035962 436.941780058 356.41455753 429.77290801 335.83917098 c 0
 422.604035962 315.26378443 399.41455753 304.058219942 378.83917098 311.22709199 c 0
 370.540379905 314.11855511 329.574379155 306.422545484 285.350539214 311.053097012 c 0
 263.06281151 311.435767325 235.512369453 304.822033073 199.800108856 305.000499459 c 0
 178.01186885 305.109382724 159.891616194 323.411651138 160.000499459 345.199891144 c 0
EndSplineSet
Refer: 59 926544 S 1 0 0 1 0 0 2
EndChar

StartChar: ZLM_R
Encoding: 240 926704 177
Width: 600
VWidth: 0
GlyphClass: 2
Flags: HW
HStem: -10 80<212.594 363.555> 400 80<217.241 363.555>
VStem: 440 110<148.617 321.383>
LayerCount: 2
Fore
SplineSet
330 329 m 4
 330 356.235640084 352.764359916 379 380 379 c 6
 386 379 l 6
 508.675258876 379 602.057147866 133.979418785 606.161408016 126.812674139 c 4
 607.018900942 126.298178384 611.867294846 123.389142041 612.724787771 122.874646286 c 4
 636.079156471 108.862025066 643.887267505 77.6295809281 629.874646286 54.2752122286 c 4
 615.862025066 30.9208435292 584.629580928 23.1127324947 561.275212229 37.1253537144 c 6
 546.275212229 46.1253537144 l 6
 541.680956689 48.881907038 536.167547096 53.5863181991 532.39949413 58.4746018074 c 4
 475.689776721 132.043945047 406.855949132 279 386 279 c 6
 380 279 l 6
 352.764359916 279 330 301.764359916 330 329 c 4
EndSplineSet
Refer: 71 926560 N 1 0 0 1 0 0 2
EndChar

StartChar: ZLM_Z
Encoding: 256 926720 188
Width: 600
VWidth: 0
GlyphClass: 2
Flags: HW
HStem: -10 80<322.291 414.067> 400 80<227.453 370.555>
VStem: 50 100<-255 313.687> 204.237 105.893<81.4847 147.853> 447 110<111.594 321.383>
LayerCount: 2
Fore
SplineSet
372.058005252 236.665110917 m 0
 378.956853303 257.332601178 401.997620657 268.840842799 422.665110917 261.941994748 c 0
 452.866574186 251.860688145 467.116822711 234.882054571 472.534352771 232.422728871 c 0
 497.426146033 221.12292505 522.574142773 199.079426243 537.390268457 186.908482132 c 0
 539.102894528 185.501617973 541.211427854 183.378522672 542.320434951 182.089676586 c 2
 616.320434951 96.089676586 l 2
 617.481931045 94.7398297746 618.918113169 92.7643438568 619.647139015 91.6303036525 c 2
 637.647139015 63.6303036525 l 2
 649.429442319 45.302276291 643.958331014 20.1351642888 625.630303653 8.35286098494 c 0
 607.302276291 -3.42944231892 582.135164289 2.04166898591 570.352860985 20.3696963475 c 2
 553.860774834 46.0240525828 l 1
 484.007013392 127.205451015 l 2
 470.101144333 138.388345099 444.852985702 157.131651111 439.465647229 159.577271129 c 0
 412.217866766 171.946591835 399.029840478 185.492227212 397.334889083 186.058005252 c 0
 376.667398822 192.956853303 365.159157201 215.997620657 372.058005252 236.665110917 c 0
EndSplineSet
Refer: 83 926576 S 1 0 0 1 0 0 2
EndChar

StartChar: ZLM_J
Encoding: 272 926736 199
Width: 600
VWidth: 0
GlyphClass: 2
Flags: HW
HStem: -10 80<212.594 363.555> 400 80<217.241 363.555>
VStem: 440 110<148.617 321.383>
LayerCount: 2
Fore
SplineSet
373.194299994 205.298574999 m 0
 367.909809601 226.43653657 381.160613427 248.521209613 402.298574999 253.805700006 c 2
 410.298574999 255.805700006 l 2
 424.566391046 259.372654018 440.258136996 253.443043905 448.511907477 245.054788041 c 0
 473.136449834 220.029018026 491.604873119 198.385499477 514.498999667 178.974787313 c 0
 541.143215071 154.419802644 556.663046574 131.454184539 575.365181066 107.823888026 c 0
 576.535177354 106.345588358 578.422338257 103.396939515 578.814727547 102.696733694 c 0
 579.505192926 101.973368254 596.160351052 75.032772231 596.437147141 74.0718435525 c 0
 602.468122062 53.1346374445 590.00904966 30.5938277802 569.071843553 24.5628528589 c 0
 553.269632719 20.0110164416 522.588721829 23.6200212581 512.634818934 58.1761119744 c 1
 492.608950658 83.4789567112 477.410093483 104.363586044 461.501000333 119.025212687 c 0
 460.738251166 119.671907135 405.722759548 173.893191646 405.028997918 174.61339634 c 2
 405.028997918 174.61339634 379.138914135 181.520118434 373.194299994 205.298574999 c 0
EndSplineSet
Refer: 95 926592 S 1 0 0 1 0 0 2
EndChar

StartChar: ZLM_N
Encoding: 288 926752 210
Width: 600
VWidth: 0
Flags: HW
HStem: -10 80<223.725 381.759> 390 80<49 177.588 308.719 549>
VStem: 49.001 110.002<131.894 279.803>
LayerCount: 2
Fore
SplineSet
292.9609375 237.4375 m 4
 360.533203125 227.866210938 328.65625 305.577148438 361.110351562 350.436523438 c 4
 379.624023438 376.02734375 435.979492188 389.662109375 467.296875 386.994140625 c 4
 469.528320312 386.8046875 472.45703125 387.385742188 474.170898438 387.78515625 c 4
 498.85546875 393.534179688 509.727539062 371.333007812 534.26171875 321.8203125 c 4
 535.22265625 319.881835938 533.225585938 275.487304688 528.926757812 263.31640625 c 5
 508.840820312 236.240234375 l 6
 503.432617188 232.879882812 486.93359375 222.833984375 481.045898438 220.776367188 c 6
 437.561523438 205.579101562 l 5
 327.086914062 198.037109375 262 91.1416015625 277.474609375 -15.173828125 c 4
 279.26953125 -27.501953125 280.28125 -46.5908203125 280.28125 -60.01171875 c 6
 280.28125 -164.700195312 l 6
 280.28125 -169.37109375 280.530273438 -169.3203125 280.530273438 -169.3203125 c 6
 280.154296875 -170.051757812 315.926757812 -241.139648438 316.717773438 -241.099609375 c 4
 333.963867188 -240.204101562 347.662109375 -224.341796875 346.807617188 -206.26171875 c 4
 346.768554688 -205.431640625 344.977539062 -165.616210938 344.784179688 -164.810546875 c 4
 344.784179688 -129.6640625 343.67578125 -94.9775390625 343.67578125 -60.01171875 c 4
 343.67578125 -43.525390625 342.727539062 -22.8974609375 340.14453125 -5.146484375 c 4
 329.209960938 69.9716796875 374.166015625 136.432617188 444.801757812 139.421875 c 4
 447.166992188 139.524414062 450.788085938 140.13671875 453.547851562 141.102539062 c 6
 501.094726562 157.71875 l 6
 502.712890625 158.284179688 505.3515625 159.490234375 507.23046875 160.65625 c 6
 550.021484375 187.243164062 l 6
 552.955078125 189.067382812 556.471679688 192.181640625 558.8828125 195.431640625 c 6
 581.071289062 225.342773438 l 6
 581.83203125 226.369140625 583.0703125 228.287109375 583.8515625 229.783203125 c 4
 599.125 259.026367188 608.779296875 315.609375 590.517578125 352.465820312 c 4
 574.973632812 383.833007812 544.215820312 469.41015625 464.044921875 453.455078125 c 5
 428.77734375 453.262695312 396.165039062 449.430664062 344.6953125 409.2109375 c 4
 344.6953125 409.2109375 255.64453125 447.295898438 224.471679688 446.81640625 c 4
 198.616210938 446.79296875 172.5078125 443.963867188 147.87109375 435.016601562 c 4
 104.173828125 419.145507812 36.73046875 378.844726562 31.548828125 308.115234375 c 4
 31.5048828125 307.513671875 31.4560546875 306.380859375 31.4560546875 305.569335938 c 4
 31.4560546875 286.563476562 35.125 270.192382812 41.70703125 253.188476562 c 4
 46.474609375 240.876953125 51.6943359375 191.30078125 96.046875 173.225585938 c 4
 99.1796875 171.950195312 103.650390625 170.969726562 107.530273438 170.969726562 c 6
 110.700195312 170.969726562 l 6
 127.965820312 170.969726562 142.397460938 186.100585938 142.397460938 204.203125 c 4
 142.397460938 224.0234375 124.176757812 235.278320312 115.190429688 237.15234375 c 4
 114.860351562 237.908203125 100.747070312 277.416992188 100.44921875 278.1875 c 4
 94.99609375 292.270507812 94.853515625 292.112304688 94.8515625 304.03125 c 4
 97.4833984375 327.676757812 132.015625 358.9140625 168.62109375 372.206054688 c 4
 183.883789062 377.750976562 203.34765625 380.34765625 224.810546875 380.34765625 c 4
 225.43359375 380.34765625 226.309570312 380.446289062 226.770507812 380.41015625 c 4
 340.076171875 371.87109375 247.513671875 243.875976562 292.9609375 237.4375 c 4
EndSplineSet
EndChar

StartChar: ZLM_SEMIVOWEL_Q
Encoding: 304 926768 221
Width: 600
VWidth: 0
Flags: W
HStem: 0 21G<51 158.511 442.489 550>
LayerCount: 2
Fore
SplineSet
300.5 353.675 m 5
 150 0 l 5
 51 0 l 5
 250 470 l 6
 351 470 l 5
 550 0 l 5
 451 0 l 5
 300.5 353.675 l 5
EndSplineSet
EndChar

StartChar: ZLM_SEMIVOWEL_W
Encoding: 320 926784 232
Width: 600
VWidth: 0
Flags: W
HStem: 0 21G<241.532 359.468>
LayerCount: 2
Fore
SplineSet
300.5 116.325195312 m 5
 451 470 l 5
 550 470 l 5
 351 0 l 5
 250 0 l 6
 51 470 l 5
 150 470 l 5
 300.5 116.325195312 l 5
EndSplineSet
EndChar

StartChar: ZLM_DIACRITIC_A
Encoding: 336 926800 243
Width: 300
VWidth: 0
GlyphClass: 2
Flags: HW
HStem: 106 244<122 177>
VStem: 105 90<181.778 350>
LayerCount: 2
Fore
SplineSet
151.278320312 170.162109375 m 5
 219.875976562 347 l 5
 265 347 l 5
 174.295898438 112 l 5
 128.260742188 112 l 6
 37.5556640625 347 l 5
 82.6806640625 347 l 5
 151.278320312 170.162109375 l 5
EndSplineSet
EndChar

StartChar: ZLM_DIACRITIC_E
Encoding: 352 926816 254
Width: 300
VWidth: 0
GlyphClass: 2
Flags: HW
HStem: 200 72<30 270>
VStem: 30 240<200 272>
LayerCount: 2
Fore
SplineSet
90 235 m 4
 90 268 117 295 150 295 c 4
 183 295 210 268 210 235 c 4
 210 202 183 175 150 175 c 4
 117 175 90 202 90 235 c 4
EndSplineSet
EndChar

StartChar: ZLM_DIACRITIC_I
Encoding: 368 926832 265
Width: 300
VWidth: 0
GlyphClass: 2
Flags: HW
HStem: 175 120<103.745 196.255>
VStem: 90 120<188.745 281.255>
LayerCount: 2
Fore
SplineSet
128.780273438 136.759765625 m 5
 116.200195312 241.540039062 l 5
 116.200195312 342.940429688 l 5
 182.799804688 342.940429688 l 5
 182.799804688 241.540039062 l 5
 169.48046875 136.759765625 l 5
 128.780273438 136.759765625 l 5
EndSplineSet
EndChar

StartChar: ZLM_DIACRITIC_O
Encoding: 384 926848 276
Width: 300
VWidth: 0
GlyphClass: 2
Flags: HW
HStem: 185 61<146.851 230.539> 225 57<68.5447 148.178>
VStem: 4 58<184 213.67> 238 56<253.237 283>
LayerCount: 2
Fore
SplineSet
155 136.049804688 m 4
 99.9868692412 136.049804688 58.2001953125 180.508706062 58.2001953125 236.150390625 c 4
 58.2001953125 288.491961569 102.660363084 332.950195312 155 332.950195312 c 4
 207.921200601 332.950195312 251.799804688 287.162373192 251.799804688 233.950195312 c 4
 251.799804688 179.756968159 208.512739963 136.049804688 155 136.049804688 c 4
156 288 m 4
 128.260421559 288 104 263.738661908 104 236 c 4
 104 206.616900115 127.206880423 182 156 182 c 260
 184.268850728 182 208 206.440055165 208 235 c 260
 208 263.56340823 184.270465119 288 156 288 c 4
EndSplineSet
EndChar

StartChar: ZLM_DIACRITIC_U
Encoding: 400 926864 287
Width: 300
VWidth: 0
GlyphClass: 2
Flags: HW
HStem: 174.1 61.1006<92.6182 213.502>
VStem: 237.7 62.3994<255.862 301.5>
LayerCount: 2
Fore
SplineSet
50.8603515625 263.004882812 m 5
 268.426757812 263.004882812 l 5
 268.426757812 212.004882812 l 5
 50.8603515625 212.004882812 l 5
 50.8603515625 263.004882812 l 5
EndSplineSet
EndChar

StartChar: ZLM_DIACRITIC_Y
Encoding: 416 926880 298
Width: 300
VWidth: 0
GlyphClass: 2
Flags: HW
HStem: 136.05 45.9502<114.403 197.263> 288 44.9502<115.132 197.135>
VStem: 58.2002 45.7998<192.341 277.505> 208 43.7998<193.173 276.748>
LayerCount: 2
Fore
SplineSet
170.102539062 327.416992188 m 5
 214 308 l 5
 151.706054688 167.162109375 l 5
 107.80859375 186.578125 l 5
 170.102539062 327.416992188 l 5
EndSplineSet
EndChar

